<svg width="32" height="32" viewBox="0 0 32 32" fill="none" xmlns="http://www.w3.org/2000/svg">
<path d="M30.6673 8.00004V2.66671C30.6673 2.31309 30.5268 1.97395 30.2768 1.7239C30.0267 1.47385 29.6876 1.33337 29.334 1.33337H2.66732C2.3137 1.33337 1.97456 1.47385 1.72451 1.7239C1.47446 1.97395 1.33398 2.31309 1.33398 2.66671V8.00004H30.6673Z" fill="#2EC5CE"/>
<path d="M1.33398 10.6667V29.3334C1.33398 29.687 1.47446 30.0262 1.72451 30.2762C1.97456 30.5263 2.3137 30.6667 2.66732 30.6667H9.33398V10.6667H1.33398Z" fill="#D6B1FF"/>
<path d="M12 30.6667H29.3333C29.687 30.6667 30.0261 30.5263 30.2761 30.2762C30.5262 30.0262 30.6667 29.687 30.6667 29.3334V10.6667H12V30.6667Z" fill="#8C30F5"/>
</svg>
